<svg width="90" height="22" viewBox="0 0 90 22" fill="none" xmlns="http://www.w3.org/2000/svg">
<g clip-path="url(#clip0_3103_45783)">
<path d="M54.9635 15.9504C55.6189 15.9504 56.1869 15.9285 56.7767 15.9722C56.9297 15.9941 57.1044 16.1907 57.2137 16.3655C57.9564 17.5233 59.0706 17.8073 60.3377 17.7418C61.43 17.6763 62.2602 17.1738 62.6753 16.147C63.0685 15.1639 62.9811 14.1371 62.9374 13.0666C62.3913 13.4599 61.9325 13.875 61.4082 14.159C59.1798 15.3387 56.3398 14.443 55.1382 12.1709C53.9367 9.9426 54.3518 6.8404 56.0995 5.2893C57.9564 3.62897 60.8402 3.65082 62.6097 5.39854C62.6753 5.46408 62.6971 5.55146 62.7408 5.63885C62.7845 5.617 62.8501 5.59516 62.8937 5.57331C62.9156 5.15823 62.9374 4.74314 62.9593 4.26252C63.6365 4.26252 64.3138 4.26252 65.0347 4.26252C65.0565 4.37175 65.0784 4.48099 65.0784 4.59022C65.0784 8.02011 65.1002 11.4282 65.0347 14.8581C64.991 17.567 63.5054 19.1837 60.8402 19.555C59.0925 19.7954 57.454 19.4677 56.0995 18.2661C55.4004 17.6326 55.0509 16.9116 54.9635 15.9504ZM56.5364 9.26536C56.6238 9.72414 56.6675 10.2048 56.8204 10.6417C57.5414 12.8482 60.1848 13.5254 61.8888 11.9525C63.1996 10.7291 63.2651 8.15119 62.0199 6.8404C61.3426 6.11947 60.4906 5.79177 59.5294 5.87916C57.4977 6.03208 56.5583 7.67057 56.5364 9.26536Z" fill="#09001C"/>
<path d="M25.121 14.4648C24.553 14.4648 24.0724 14.4429 23.5699 14.4648C23.133 14.4866 23.0019 14.3556 23.0238 13.9186C23.0456 11.1441 23.0238 8.39147 23.0238 5.61697C23.0238 5.15819 23.0238 4.69941 23.0238 4.19694C23.7229 4.19694 24.3783 4.19694 25.0992 4.19694C25.0992 4.52464 25.0992 4.85234 25.0992 5.35481C26.1697 4.26248 27.3494 3.86925 28.7257 4.00033C30.0802 4.13141 31.1725 4.74311 31.8716 5.85728C32.3959 5.3985 32.8547 4.89603 33.4008 4.56834C35.6292 3.21385 39.6271 4.10956 39.78 7.91084C39.8674 9.96441 39.8237 12.018 39.8019 14.0715C39.8019 14.2026 39.6052 14.4211 39.496 14.4211C38.928 14.4648 38.3818 14.4429 37.7264 14.4429C37.7264 14.2026 37.7264 14.006 37.7264 13.8312C37.7264 12.0398 37.7483 10.2266 37.7264 8.43516C37.6828 6.31605 35.7166 5.18004 33.8159 6.11943C33.1168 6.46898 32.7236 7.08068 32.5925 7.82346C32.5051 8.26039 32.4833 8.71916 32.4833 9.17794C32.4614 10.9038 32.4833 12.6297 32.4833 14.3992C31.7842 14.3992 31.1288 14.3992 30.4079 14.3992C30.4079 14.2026 30.4079 14.006 30.4079 13.8094C30.4079 12.0835 30.4297 10.3576 30.4079 8.63178C30.386 6.49082 28.8131 5.33296 26.8251 5.98836C25.9949 6.25051 25.4924 6.86221 25.2958 7.69238C25.1866 8.173 25.1647 8.67547 25.1647 9.15609C25.121 10.9038 25.121 12.6515 25.121 14.4648Z" fill="#09001C"/>
<path d="M87.8433 14.4204C87.8433 13.9398 87.8433 13.5247 87.8433 13.0222C87.4283 13.3499 87.1006 13.6776 86.7292 13.9179C84.2824 15.4909 80.918 14.3767 79.8475 11.6459C79.0392 9.61417 79.1484 7.64799 80.4374 5.85658C82.0977 3.54085 85.7024 3.34423 87.5156 5.35411C87.5812 5.44149 87.6686 5.48519 87.8215 5.63811C87.8215 5.1138 87.8215 4.67687 87.8215 4.19625C88.5643 4.19625 89.2415 4.19625 89.9406 4.19625C89.9406 7.60429 89.9406 10.9687 89.9406 14.3985C89.2852 14.4204 88.608 14.4204 87.8433 14.4204ZM87.8433 9.30832C87.8433 9.15539 87.8433 9.02431 87.8433 8.87139C87.6686 6.75228 85.6587 5.22303 83.5177 6.07504C82.0322 6.6649 81.3768 8.28153 81.5734 9.76709C81.8137 11.624 83.1245 12.8474 84.8067 12.8038C86.5762 12.7601 87.8433 11.2963 87.8433 9.30832Z" fill="#09001C"/>
<path d="M50.2654 5.66118C50.2654 5.11502 50.2654 4.69994 50.2654 4.21931C50.9426 4.21931 51.6199 4.21931 52.3408 4.21931C52.3626 4.37224 52.3845 4.54701 52.3845 4.72178C52.3845 7.78029 52.3845 10.8388 52.3845 13.8973C52.3845 14.3342 52.2752 14.5308 51.8165 14.4872C51.3358 14.4435 50.8334 14.4872 50.2872 14.4872C50.2872 13.9847 50.2872 13.5478 50.2872 13.0234C50.1561 13.089 50.0906 13.1108 50.0469 13.1545C48.7143 14.5745 47.0758 14.9678 45.2625 14.4435C43.34 13.8755 42.2696 12.4554 41.8982 10.5329C41.5268 8.50122 41.8982 6.66612 43.493 5.20241C45.197 3.62946 48.2555 3.56392 49.8721 5.31164C49.9377 5.39902 50.0688 5.48641 50.2654 5.66118ZM43.908 9.244C43.9517 9.5717 43.9736 9.89939 44.0391 10.2052C44.4542 12.3462 46.617 13.4167 48.5613 12.4336C49.7848 11.8219 50.462 10.3145 50.2217 8.76338C49.9814 7.23413 49.042 6.1418 47.753 5.92334C45.5902 5.55195 43.9299 7.01566 43.908 9.244Z" fill="#09001C"/>
<path d="M69.7973 5.35547C71.1518 4.08838 72.5937 3.76068 74.1885 4.17576C75.9144 4.63454 77.0504 5.96717 77.1159 7.73674C77.1814 9.85584 77.1596 11.9531 77.1378 14.0722C77.1378 14.2033 76.963 14.4436 76.8538 14.4436C76.2857 14.4873 75.6959 14.4654 75.0623 14.4654C75.0623 13.5042 75.0623 12.5867 75.0623 11.6909C75.0405 10.4457 75.106 9.20045 74.975 7.97705C74.8002 6.55703 73.7297 5.77055 72.3752 5.81425C70.9115 5.87978 69.9284 6.75364 69.8629 8.2392C69.7973 10.0306 69.8192 11.8439 69.8192 13.6353C69.8192 13.8756 69.8192 14.1377 69.8192 14.4218C69.1201 14.4218 68.4647 14.4218 67.7656 14.4218C67.7656 11.0356 67.7656 7.64935 67.7656 4.19761C68.421 4.19761 69.0764 4.19761 69.7973 4.19761C69.7973 4.54715 69.7973 4.87485 69.7973 5.35547Z" fill="#09001C"/>
<path fill-rule="evenodd" clip-rule="evenodd" d="M1.6246 3.20277C1.04637 2.94295 0.392578 3.36594 0.392578 3.99985V8.4598V8.98466V13.2005C0.392578 14.3365 0.654735 14.6205 1.79075 14.6205H8.45392H8.45422C10.748 14.6205 13.0199 14.6205 15.27 14.6423C16.2094 14.6423 16.4716 14.3802 16.4716 13.4408C16.4716 12.8655 16.4692 12.2902 16.4667 11.7149C16.4629 10.8048 16.459 9.89475 16.4648 8.98466H16.4731V4.0159C16.4731 3.37792 15.8116 2.95499 15.2325 3.2227L9.08956 6.06263C8.74507 6.22189 8.34846 6.22402 8.00227 6.06847L1.6246 3.20277Z" fill="#09001C"/>
</g>
<defs>
<clipPath id="clip0_3103_45783">
<rect width="89.5705" height="20.3172" fill="white" transform="translate(0.347656 0.873047)"/>
</clipPath>
</defs>
</svg>
